<?xml version="1.0" encoding="UTF-8"?>
<svg width="312px" height="406px" viewBox="0 0 312 406" version="1.1" xmlns="http://www.w3.org/2000/svg" xmlns:xlink="http://www.w3.org/1999/xlink">
    <!-- Generator: Sketch 51.2 (57519) - http://www.bohemiancoding.com/sketch -->
    <title>Group</title>
    <desc>Created with Sketch.</desc>
    <defs>
        <path d="M54.8513383,0.734805195 C47.9091144,0.763558442 41.6020796,2.38891558 36.1529104,5.48707792 L21.7598308,14.2584156 C8.52739303,21.7797857 0.342825871,37.9854351 0.342825871,61.0894675 C0.342825871,107.295935 33.0802935,163.601182 73.4640597,186.850578 C93.7588706,198.533981 112.123284,199.644974 125.37094,191.995812 L139.76402,183.225273 C152.877109,175.652786 160.979174,159.495058 160.979174,136.509234 C160.979174,90.3027662 128.241706,33.9975195 87.8579403,10.7481234 C76.1289701,3.9951039 65.047204,0.773941558 55.223801,0.734805195 L54.8513383,0.734805195 Z" id="path-1"></path>
        <linearGradient x1="50%" y1="0%" x2="50%" y2="100%" id="linearGradient-3">
            <stop stop-color="#00E2C1" offset="0%"></stop>
            <stop stop-color="#000000" offset="100%"></stop>
        </linearGradient>
        <polygon id="path-4" points="0.571280611 0.337950209 127.621645 0.337950209 127.621645 73.4805195 0.571280611 73.4805195"></polygon>
        <polygon id="path-6" points="0 0.246157317 146.080478 0.246157317 146.080478 187.481612 0 187.481612"></polygon>
        <path d="M2.98530846,1.26274675 C-0.587930348,3.36892208 -0.482199005,10.0820065 3.22160199,16.2264156 C5.07350249,19.2990195 7.47889055,21.6567857 9.86825871,22.9826299 C11.3324776,23.7949091 12.7878856,24.215026 14.1087264,24.1814805 L27.4076468,46.2456039 C27.8890448,45.6098377 28.4593532,45.0675195 29.142602,44.6641753 C29.8202438,44.2648247 30.5731791,44.0236169 31.3725721,43.9046104 L18.0768557,21.8428831 C19.81101,18.8621299 19.1678109,13.5411818 16.1817015,8.58683766 C13.2380448,3.70357792 8.89504975,0.625383117 5.4419602,0.625383117 C4.55045274,0.625383117 3.7190199,0.830649351 2.98530846,1.26274675 Z M5.99865174,14.5890779 C3.88242289,11.0787857 3.82154726,7.24262338 5.86408458,6.03898052 C6.88455224,5.43675974 8.24063682,5.60608442 9.60633333,6.36325325 C10.9712289,7.12122078 12.3465373,8.46862987 13.4046517,10.2241753 C15.5208806,13.7352662 15.5809552,17.5706299 13.5384179,18.7750714 C13.1194975,19.0218701 12.6445075,19.1392792 12.1350746,19.1392792 C10.1622239,19.1392792 7.68154229,17.3821364 5.99865174,14.5890779 Z M7.3899801,45.4532922 C3.66134826,44.7424481 1.00044279,47.2248117 1.07413433,51.9283636 C1.16704975,57.7628766 5.42834328,64.8337792 10.5723333,67.6883377 C15.7179254,70.5444935 19.8302338,68.1204351 19.7373184,62.2867208 C19.6636269,57.5823701 16.8769652,52.0777208 13.1042786,48.6233377 L12.7734677,27.667013 C11.8379055,27.3954545 10.8831194,27.0056883 9.92272637,26.4713571 C8.96233333,25.9386234 8.00274129,25.2677143 7.05997015,24.4953701 L7.3899801,45.4532922 Z M10.5010448,63.1533117 C7.56139303,61.5215649 5.12716915,57.4825325 5.07430348,54.1479545 C5.02223881,50.814974 7.37075622,49.4292273 10.310408,51.060974 C13.2508607,52.6927208 15.6858856,56.7325519 15.7379502,60.0663312 C15.775597,62.4512532 14.5845174,63.8385974 12.8279353,63.8385974 C12.1278657,63.8385974 11.3388856,63.6181558 10.5010448,63.1533117 Z M58.7361642,32.2036364 C55.8549851,33.902474 55.3695821,38.5964416 57.2286915,43.5715519 L42.186806,52.4379351 C40.8731741,50.9547468 39.4161642,49.7407208 37.9086915,48.9044805 C35.415995,47.5203312 33.0891045,47.3206558 31.3589552,48.3421948 C27.7857164,50.4475714 27.8906468,57.1598571 31.5944478,63.3050649 C33.3886766,66.2818247 35.749209,68.6835195 38.2419055,70.0668701 C40.734602,71.4502208 43.0590896,71.6498961 44.7908408,70.6283571 C46.521791,69.6084156 47.4501443,67.4902597 47.4060896,64.6636558 C47.3788557,62.9544351 46.9927761,61.1102338 46.2991144,59.2612403 L61.341,50.3948571 C62.6858706,51.9083961 64.1540945,53.1112403 65.6183134,53.9227208 C68.0076816,55.2493636 70.3810299,55.5448831 72.1680498,54.4913961 C75.7412886,52.3852208 75.6355572,45.6721364 71.9317562,39.5269286 C68.9889005,34.6444675 64.6451045,31.5662727 61.1928159,31.565474 C60.3013085,31.565474 59.4690746,31.7707403 58.7361642,32.2036364 Z M61.7495075,45.5307662 C59.6324776,42.0188766 59.572403,38.1843117 61.6149403,36.9790714 C62.635408,36.3784481 63.9914925,36.546974 65.3563881,37.3041429 C66.7212836,38.0613117 68.096592,39.4079221 69.1547065,41.1642662 C71.2701343,44.6753571 71.3318109,48.5115195 69.2900746,49.715961 C68.8711542,49.9627597 68.3953632,50.0793701 67.8867313,50.0793701 C65.9130796,50.0801688 63.430796,48.3214286 61.7495075,45.5307662 Z M38.1706169,65.5318442 C36.7464478,64.7411299 35.3975721,63.3697597 34.3714975,61.6677273 C32.2560697,58.1558377 32.195194,54.3212727 34.2369303,53.1176299 C35.2269602,52.5345779 36.5558109,52.6487922 37.9791791,53.4395065 C39.4033483,54.2294221 40.7522239,55.6023896 41.7766965,57.3028247 C42.8027711,59.0032597 43.3818905,60.8298896 43.4067214,62.4448636 C43.4323532,64.059039 42.9012935,65.2698701 41.9128657,65.8537208 C41.4963483,66.0989221 41.0197562,66.2211234 40.5007114,66.2211234 C39.7878259,66.2211234 38.9948408,65.9902987 38.1706169,65.5318442 Z M63.1408358,76.3933831 C59.411403,75.6841364 56.7504975,78.1649026 56.82499,82.8692532 C56.9163035,88.7037662 61.178398,95.7738701 66.3223881,98.6292273 C71.4687811,101.485383 75.5802886,99.0621234 75.4881741,93.2268117 C75.4136816,88.5232597 72.6278209,83.0186104 68.8543333,79.5642273 L68.5235224,58.6071039 C67.5887612,58.3363442 66.6331741,57.9457792 65.6735821,57.4130455 C64.7131891,56.8803117 63.753597,56.2078052 62.8108259,55.4362597 L63.1408358,76.3933831 Z M66.2510995,94.0942013 C63.3114478,92.4632532 60.8772239,88.4234221 60.8243582,85.0896429 C60.7722935,81.7550649 63.1208109,80.3709156 66.0612637,82.0026623 C69.0017164,83.6344091 71.4351393,87.6734416 71.488806,91.0072208 C71.5256517,93.3913442 70.3345721,94.7786883 68.57799,94.779487 C67.8787214,94.779487 67.0889403,94.5590455 66.2510995,94.0942013 Z" id="path-8"></path>
        <path d="M49.4002736,0.66012987 C43.1479602,0.685961039 37.4677114,2.14613961 32.5600746,4.92944805 L19.5973632,12.8093896 C7.67995025,19.5663929 0.308756219,34.1251266 0.308756219,54.8811883 C0.308756219,96.3918766 29.7928109,146.975045 66.1632836,167.861698 C84.4412189,178.357763 100.980597,179.355851 112.911716,172.484042 L125.874428,164.604818 C137.684353,157.801893 144.981244,143.286211 144.981244,122.636344 C144.981244,81.1256558 115.497189,30.542487 79.1267164,9.65583442 C68.5633582,3.5890974 58.5828856,0.695288961 49.7357214,0.66012987 L49.4002736,0.66012987 Z" id="path-10"></path>
        <polygon id="path-12" points="0.514507383 0.303605675 114.938749 0.303605675 114.938749 66.012987 0.514507383 66.012987"></polygon>
        <polygon id="path-14" points="0 0.22114133 131.563164 0.22114133 131.563164 168.428603 0 168.428603"></polygon>
        <path d="M2.68863184,1.13441883 C-0.529502488,3.02655195 -0.434278607,9.05741234 2.90144279,14.5773896 C4.56930348,17.337737 6.73564677,19.4558929 8.88756219,20.6469968 C10.2062687,21.3767273 11.5170398,21.7541494 12.7066169,21.724013 L24.6839055,41.5458474 C25.1174627,40.9746916 25.6310945,40.487487 26.2464428,40.1251331 C26.8567413,39.7663669 27.5348507,39.5496721 28.254801,39.4427597 L16.280398,19.6230779 C17.8422139,16.9452468 17.2629353,12.1650455 14.5735821,7.71419156 C11.9224627,3.32719805 8.01106965,0.561827922 4.90114428,0.561827922 C4.09823383,0.561827922 3.34942786,0.746233766 2.68863184,1.13441883 Z M5.40251244,13.1064481 C3.49659204,9.95289286 3.44176617,6.50658442 5.28131841,5.42526299 C6.20037313,4.88424351 7.42169154,5.03636039 8.65166667,5.71658117 C9.8809204,6.39751948 11.1195522,7.60799675 12.0725124,9.18513312 C13.9784328,12.3394058 14.0325373,15.7849968 12.1929851,16.8670357 C11.8156965,17.0887532 11.3879104,17.1942305 10.9291045,17.1942305 C9.15231343,17.1942305 6.9181592,15.6156591 5.40251244,13.1064481 Z M6.65557214,40.8340552 C3.29748756,40.1954513 0.9010199,42.4255422 0.96738806,46.6510909 C1.05106965,51.8926656 4.8888806,58.2449805 9.52166667,60.8094416 C14.1558955,63.3753377 17.8595274,61.1976266 17.7758458,55.9567695 C17.7094776,51.7305032 15.1997512,46.7852695 11.80199,43.6819416 L11.5040547,24.8553247 C10.6614677,24.6113636 9.80156716,24.2612078 8.93661692,23.7811786 C8.07166667,23.3025844 7.20743781,22.6998571 6.35835821,22.0060032 L6.65557214,40.8340552 Z M9.45746269,56.7352922 C6.80995025,55.2693734 4.61763682,51.6408117 4.57002488,48.6451136 C4.52313433,45.6508506 6.63825871,44.4059318 9.28577114,45.8718506 C11.934005,47.3377695 14.1270398,50.9670487 14.1739303,53.9620292 C14.2078358,56.1045812 13.1351244,57.3509351 11.5531095,57.3509351 C10.9226119,57.3509351 10.2120398,57.1528961 9.45746269,56.7352922 Z M52.8990299,28.9309091 C50.3041791,30.4571006 49.8670149,34.674039 51.5413682,39.1435487 L37.9943284,47.1088766 C36.8112438,45.7764188 35.4990299,44.6857695 34.1413682,43.934513 C31.896393,42.6910292 29.8007463,42.5116461 28.2425373,43.4293701 C25.024403,45.3207857 25.1189055,51.3509286 28.4546269,56.8716234 C30.0705473,59.5458669 32.1964925,61.703487 34.4414677,62.9462532 C36.6864428,64.1890195 38.7799254,64.3684026 40.3395771,63.4506786 C41.8985075,62.5343896 42.734602,60.6314935 42.6949254,58.0921461 C42.670398,56.5566266 42.3226866,54.8998442 41.6979602,53.2387565 L55.245,45.2734286 C56.4562189,46.6331526 57.7785323,47.7137565 59.0972388,48.4427695 C61.2491542,49.6345909 63.3866418,49.9000779 64.9960697,48.9536526 C68.214204,47.0615195 68.1189801,41.0306591 64.7832587,35.5099643 C62.1328607,31.1236883 58.2207463,28.3583182 55.1115423,28.3576006 C54.3086318,28.3576006 53.5591045,28.5420065 52.8990299,28.9309091 Z M55.6129104,40.9036558 C53.7062687,37.7486656 53.6521642,34.3037922 55.4917164,33.2210357 C56.4107711,32.6814513 57.6320896,32.8328506 58.8613433,33.5130714 C60.090597,34.1932922 61.3292289,35.4030519 62.2821891,36.9809058 C64.1873881,40.1351786 64.2429353,43.581487 62.4041045,44.663526 C62.0268159,44.8852435 61.5983085,44.9900032 61.1402239,44.9900032 C59.3627114,44.9907208 57.1271144,43.4107143 55.6129104,40.9036558 Z M34.3772637,58.8721039 C33.0946269,58.1617468 31.879801,56.9297435 30.9556965,55.4006818 C29.0504975,52.2456916 28.9956716,48.8008182 30.8345025,47.7194968 C31.7261443,47.1956981 32.9229353,47.2983052 34.2048507,48.0086623 C35.4874876,48.7183019 36.7023134,49.9517403 37.6249751,51.4793669 C38.5490796,53.0069935 39.0706468,54.6479903 39.09301,56.0988409 C39.1160945,57.548974 38.6378109,58.6367532 37.7476119,59.1612695 C37.3724876,59.3815519 36.9432587,59.4913344 36.475796,59.4913344 C35.8337562,59.4913344 35.1195771,59.2839675 34.3772637,58.8721039 Z M56.8659701,68.6298279 C53.5071642,67.9926591 51.1106965,70.2213149 51.1777861,74.4475812 C51.2600249,79.6891558 55.0985572,86.0407532 59.7313433,88.6059318 C64.3662935,91.1718279 68.069204,88.9948344 67.9862438,83.7525422 C67.9191542,79.5269935 65.4101493,74.5817597 62.0116667,71.4784318 L61.7137313,52.6510974 C60.8718657,52.4078539 60.0112438,52.0569805 59.1470149,51.5783864 C58.2820647,51.0997922 57.4178358,50.4956299 56.5687562,49.8024935 L56.8659701,68.6298279 Z M59.6671393,84.5317825 C57.0196269,83.0665812 54.8273134,79.4373019 54.7797015,76.4423214 C54.7328109,73.4466234 56.8479353,72.2031396 59.4961692,73.6690584 C62.144403,75.1349773 64.335995,78.763539 64.3843284,81.7585195 C64.4175124,83.9003539 63.344801,85.1467078 61.7627861,85.1474253 C61.13301,85.1474253 60.4217164,84.9493864 59.6671393,84.5317825 Z" id="path-16"></path>
        <path d="M39.5202189,0.528701299 C34.5183682,0.54938961 29.9741692,1.7188539 26.0480597,3.94801948 L15.6778905,10.2591039 C6.1439602,15.6708214 0.247004975,27.3309838 0.247004975,43.9546169 C0.247004975,77.2007338 23.8342488,117.713045 52.9306269,134.441269 C67.5529751,142.84762 80.7844776,143.646994 90.3293731,138.143328 L100.699542,131.832818 C110.147483,126.384321 115.984995,114.75864 115.984995,98.2200584 C115.984995,64.9739416 92.3977512,24.4616299 63.3013731,7.73340584 C54.8506866,2.87452597 46.8663085,0.55686039 39.7885771,0.528701299 L39.5202189,0.528701299 Z" id="path-18"></path>
        <polygon id="path-20" points="0.411605906 0.243159296 91.9509991 0.243159296 91.9509991 52.8701299 0.411605906 52.8701299"></polygon>
        <polygon id="path-22" points="0 0.177113192 105.250531 0.177113192 105.250531 134.895306 0 134.895306"></polygon>
        <path d="M2.15090547,0.908561688 C-0.42360199,2.42398052 -0.347422886,7.25412662 2.32115423,11.6751039 C3.65544279,13.8858799 5.38851741,15.5823214 7.11004975,16.5362825 C8.16501493,17.1207273 9.21363184,17.4230065 10.1652935,17.3988701 L19.7471244,33.274276 C20.0939701,32.8168344 20.5048756,32.4266299 20.9971542,32.1364188 C21.485393,31.8490812 22.0278806,31.6755292 22.6038408,31.5899026 L13.0243184,15.7162208 C14.2737711,13.5715325 13.8103483,9.74304545 11.6588657,6.17833442 C9.53797015,2.66476948 6.40885572,0.449970779 3.92091542,0.449970779 C3.27858706,0.449970779 2.67954229,0.597662338 2.15090547,0.908561688 Z M4.32200995,10.4970195 C2.79727363,7.97132143 2.75341294,5.21115584 4.22505473,4.34512013 C4.96029851,3.91181494 5.93735323,4.0336461 6.92133333,4.57843831 C7.90473632,5.12380519 8.89564179,6.09328247 9.65800995,7.35641883 C11.1827463,9.88269156 11.2260299,12.6422825 9.75438806,13.5088929 C9.45255721,13.6864675 9.11032836,13.7709448 8.74328358,13.7709448 C7.32185075,13.7709448 5.53452736,12.5066591 4.32200995,10.4970195 Z M5.32445771,32.7041981 C2.63799005,32.192737 0.72081592,33.9788279 0.773910448,37.3630909 C0.840855721,41.5610942 3.91110448,46.6486948 7.61733333,48.7025844 C11.3247164,50.7576234 14.2876219,49.0134838 14.2206766,44.8160552 C14.1675821,41.4312175 12.159801,37.4705552 9.44159204,34.9850844 L9.20324378,19.9067532 C8.52917413,19.7113636 7.84125373,19.4309221 7.14929353,19.0464643 C6.45733333,18.6631558 5.76595025,18.1804286 5.08668657,17.6247175 L5.32445771,32.7041981 Z M7.56597015,45.4395779 C5.4479602,44.2655162 3.69410945,41.3593831 3.6560199,38.9601136 C3.61850746,36.5619935 5.31060697,35.5649318 7.42861692,36.7389935 C9.54720398,37.9130552 11.3016318,40.819763 11.3391443,43.2184578 C11.3662687,44.9344383 10.5080995,45.9326494 9.24248756,45.9326494 C8.73808955,45.9326494 8.16963184,45.774039 7.56597015,45.4395779 Z M42.3192239,23.1709091 C40.2433433,24.3932435 39.8936119,27.7706104 41.2330945,31.350263 L30.3954627,37.7297338 C29.448995,36.6625617 28.3992239,35.7890552 27.3130945,35.1873701 C25.5171144,34.1914578 23.840597,34.047789 22.5940299,34.7827987 C20.0195224,36.2976429 20.0951244,41.1272143 22.7637015,45.5487662 C24.0564378,47.6905812 25.757194,49.4186299 27.5531741,50.4139675 C29.3491542,51.4093052 31.0239403,51.552974 32.2716617,50.8179643 C33.518806,50.0841039 34.1876816,48.5600649 34.1559403,46.526289 C34.1363184,45.2964838 33.8581493,43.9695584 33.3583682,42.6391851 L44.196,36.2597143 C45.1649751,37.348724 46.2228259,38.2141851 47.277791,38.7980552 C48.9993234,39.7525909 50.7093134,39.9652208 51.9968557,39.207224 C54.5713632,37.6918052 54.4951841,32.8616591 51.826607,28.4401071 C49.7062886,24.9271169 46.576597,22.7123182 44.0892338,22.7117435 C43.4469055,22.7117435 42.8472836,22.8594351 42.3192239,23.1709091 Z M44.4903284,32.7599416 C42.9650149,30.2330942 42.9217313,27.4740779 44.3933731,26.6068929 C45.1286169,26.174737 46.1056716,26.2959935 47.0890746,26.8407857 C48.0724776,27.3855779 49.0633831,28.3544805 49.8257512,29.6181916 C51.3499104,32.1444643 51.3943483,34.9046299 49.9232836,35.7712403 C49.6214527,35.9488149 49.2786468,36.0327175 48.9121791,36.0327175 C47.4901692,36.0332922 45.7016915,34.7678571 44.4903284,32.7599416 Z M27.5018109,47.150961 C26.4757015,46.5820325 25.5038408,45.5953149 24.7645572,44.3706818 C23.240398,41.8438344 23.1965373,39.0848182 24.667602,38.2187825 C25.3809154,37.7992695 26.3383483,37.8814481 27.3638806,38.4503766 C28.38999,39.0187305 29.3618507,40.0065974 30.0999801,41.2300812 C30.8392637,42.4535649 31.2565174,43.7678474 31.274408,44.9298409 C31.2928756,46.0912597 30.9102488,46.9624675 30.1980896,47.3825552 C29.89799,47.5589805 29.554607,47.6469058 29.1806368,47.6469058 C28.667005,47.6469058 28.0956617,47.4808247 27.5018109,47.150961 Z M45.4927761,54.9659708 C42.8057313,54.4556591 40.8885572,56.2406006 40.9422289,59.6254383 C41.0080199,63.8234416 44.0788458,68.9104675 47.7850746,70.9649318 C51.4930348,73.0199708 54.4553632,71.2764058 54.388995,67.0778279 C54.3353234,63.6935649 52.3281194,59.7329026 49.6093333,57.2474318 L49.3709851,42.168526 C48.6974925,41.973711 48.008995,41.6926948 47.3176119,41.3093864 C46.6256517,40.9260779 45.9342687,40.4422013 45.255005,39.8870649 L45.4927761,54.9659708 Z M47.7337114,67.7019253 C45.6157015,66.5284383 43.8618507,63.6217305 43.8237612,61.2230357 C43.7862488,58.8237662 45.4783483,57.8278539 47.5969353,59.0019156 C49.7155224,60.1759773 51.468796,63.0821104 51.5074627,65.4808052 C51.53401,67.196211 50.6758408,68.1944221 49.4102289,68.1949968 C48.906408,68.1949968 48.3373731,68.0363864 47.7337114,67.7019253 Z" id="path-24"></path>
    </defs>
    <g id="Page-1" stroke="none" stroke-width="1" fill="none" fill-rule="evenodd">
        <g id="market-Partners-Copy" transform="translate(-882.000000, -130.000000)">
            <g id="Group" transform="translate(882.000000, 130.000000)">
                <g id="Group-18" transform="translate(0.000000, 88.000000)">
                    <g id="Group-3" transform="translate(0.000000, 0.063896)">
                        <mask id="mask-2" fill="white">
                            <use xlink:href="#path-1"></use>
                        </mask>
                        <g id="Clip-2"></g>
                        <path d="M54.8513383,0.734805195 C47.9091144,0.763558442 41.6020796,2.38891558 36.1529104,5.48707792 L21.7598308,14.2584156 C8.52739303,21.7797857 0.342825871,37.9854351 0.342825871,61.0894675 C0.342825871,107.295935 33.0802935,163.601182 73.4640597,186.850578 C93.7588706,198.533981 112.123284,199.644974 125.37094,191.995812 L139.76402,183.225273 C152.877109,175.652786 160.979174,159.495058 160.979174,136.509234 C160.979174,90.3027662 128.241706,33.9975195 87.8579403,10.7481234 C76.1289701,3.9951039 65.047204,0.773941558 55.223801,0.734805195 L54.8513383,0.734805195 Z" id="Fill-1" fill="url(#linearGradient-3)" mask="url(#mask-2)"></path>
                    </g>
                    <g id="Group-14" transform="translate(0.000000, 9.648312)">
                        <g id="Group-6" transform="translate(18.422886, 162.136364)">
                            <mask id="mask-5" fill="white">
                                <use xlink:href="#path-4"></use>
                            </mask>
                            <g id="Clip-5"></g>
                        </g>
                        <path d="M69.3044124,51.5950656 L66.6723428,50.0807279 L66.6723428,59.0653188 L69.3044124,60.5804552 C71.6737557,61.9438383 71.8051189,59.5605136 71.8051189,57.5022604 C71.8051189,55.4440071 71.6737557,52.9592474 69.3044124,51.5950656" id="Fill-7" fill="#FFFFFF"></path>
                        <path d="M85.7326602,104.680588 C83.9432373,103.650263 82.6015706,104.242899 82.6015706,107.058321 L82.6015706,140.324231 C82.6015706,143.139653 83.9432373,145.276179 85.7326602,146.306503 C87.5220831,147.336828 88.8637498,146.74499 88.8637498,143.930367 L88.8637498,110.66286 C88.8637498,107.848237 87.5220831,105.710912 85.7326602,104.680588" id="Fill-9" fill="#FFFFFF"></path>
                        <g id="Group-13">
                            <mask id="mask-7" fill="white">
                                <use xlink:href="#path-6"></use>
                            </mask>
                            <g id="Clip-12"></g>
                            <path d="M73.0872716,10.3176234 C32.7563711,-12.9349675 -0.00192238806,5.38244805 -0.00032039801,51.8077597 C0.00208258706,99.4886299 34.2406149,155.479188 72.875809,177.200669 C111.442117,200.112214 146.00265,184.015987 146.080346,136.030812 C146.156441,89.5032662 113.347685,33.5294805 73.0872716,10.3176234" id="Fill-11" fill="#FFFFFF" mask="url(#mask-7)"></path>
                        </g>
                    </g>
                    <g id="Group-17" transform="translate(32.840796, 52.778182)">
                        <mask id="mask-9" fill="white">
                            <use xlink:href="#path-8"></use>
                        </mask>
                        <g id="Clip-16"></g>
                        <path d="M2.98530846,1.26274675 C-0.587930348,3.36892208 -0.482199005,10.0820065 3.22160199,16.2264156 C5.07350249,19.2990195 7.47889055,21.6567857 9.86825871,22.9826299 C11.3324776,23.7949091 12.7878856,24.215026 14.1087264,24.1814805 L27.4076468,46.2456039 C27.8890448,45.6098377 28.4593532,45.0675195 29.142602,44.6641753 C29.8202438,44.2648247 30.5731791,44.0236169 31.3725721,43.9046104 L18.0768557,21.8428831 C19.81101,18.8621299 19.1678109,13.5411818 16.1817015,8.58683766 C13.2380448,3.70357792 8.89504975,0.625383117 5.4419602,0.625383117 C4.55045274,0.625383117 3.7190199,0.830649351 2.98530846,1.26274675 Z M5.99865174,14.5890779 C3.88242289,11.0787857 3.82154726,7.24262338 5.86408458,6.03898052 C6.88455224,5.43675974 8.24063682,5.60608442 9.60633333,6.36325325 C10.9712289,7.12122078 12.3465373,8.46862987 13.4046517,10.2241753 C15.5208806,13.7352662 15.5809552,17.5706299 13.5384179,18.7750714 C13.1194975,19.0218701 12.6445075,19.1392792 12.1350746,19.1392792 C10.1622239,19.1392792 7.68154229,17.3821364 5.99865174,14.5890779 Z M7.3899801,45.4532922 C3.66134826,44.7424481 1.00044279,47.2248117 1.07413433,51.9283636 C1.16704975,57.7628766 5.42834328,64.8337792 10.5723333,67.6883377 C15.7179254,70.5444935 19.8302338,68.1204351 19.7373184,62.2867208 C19.6636269,57.5823701 16.8769652,52.0777208 13.1042786,48.6233377 L12.7734677,27.667013 C11.8379055,27.3954545 10.8831194,27.0056883 9.92272637,26.4713571 C8.96233333,25.9386234 8.00274129,25.2677143 7.05997015,24.4953701 L7.3899801,45.4532922 Z M10.5010448,63.1533117 C7.56139303,61.5215649 5.12716915,57.4825325 5.07430348,54.1479545 C5.02223881,50.814974 7.37075622,49.4292273 10.310408,51.060974 C13.2508607,52.6927208 15.6858856,56.7325519 15.7379502,60.0663312 C15.775597,62.4512532 14.5845174,63.8385974 12.8279353,63.8385974 C12.1278657,63.8385974 11.3388856,63.6181558 10.5010448,63.1533117 Z M58.7361642,32.2036364 C55.8549851,33.902474 55.3695821,38.5964416 57.2286915,43.5715519 L42.186806,52.4379351 C40.8731741,50.9547468 39.4161642,49.7407208 37.9086915,48.9044805 C35.415995,47.5203312 33.0891045,47.3206558 31.3589552,48.3421948 C27.7857164,50.4475714 27.8906468,57.1598571 31.5944478,63.3050649 C33.3886766,66.2818247 35.749209,68.6835195 38.2419055,70.0668701 C40.734602,71.4502208 43.0590896,71.6498961 44.7908408,70.6283571 C46.521791,69.6084156 47.4501443,67.4902597 47.4060896,64.6636558 C47.3788557,62.9544351 46.9927761,61.1102338 46.2991144,59.2612403 L61.341,50.3948571 C62.6858706,51.9083961 64.1540945,53.1112403 65.6183134,53.9227208 C68.0076816,55.2493636 70.3810299,55.5448831 72.1680498,54.4913961 C75.7412886,52.3852208 75.6355572,45.6721364 71.9317562,39.5269286 C68.9889005,34.6444675 64.6451045,31.5662727 61.1928159,31.565474 C60.3013085,31.565474 59.4690746,31.7707403 58.7361642,32.2036364 Z M61.7495075,45.5307662 C59.6324776,42.0188766 59.572403,38.1843117 61.6149403,36.9790714 C62.635408,36.3784481 63.9914925,36.546974 65.3563881,37.3041429 C66.7212836,38.0613117 68.096592,39.4079221 69.1547065,41.1642662 C71.2701343,44.6753571 71.3318109,48.5115195 69.2900746,49.715961 C68.8711542,49.9627597 68.3953632,50.0793701 67.8867313,50.0793701 C65.9130796,50.0801688 63.430796,48.3214286 61.7495075,45.5307662 Z M38.1706169,65.5318442 C36.7464478,64.7411299 35.3975721,63.3697597 34.3714975,61.6677273 C32.2560697,58.1558377 32.195194,54.3212727 34.2369303,53.1176299 C35.2269602,52.5345779 36.5558109,52.6487922 37.9791791,53.4395065 C39.4033483,54.2294221 40.7522239,55.6023896 41.7766965,57.3028247 C42.8027711,59.0032597 43.3818905,60.8298896 43.4067214,62.4448636 C43.4323532,64.059039 42.9012935,65.2698701 41.9128657,65.8537208 C41.4963483,66.0989221 41.0197562,66.2211234 40.5007114,66.2211234 C39.7878259,66.2211234 38.9948408,65.9902987 38.1706169,65.5318442 Z M63.1408358,76.3933831 C59.411403,75.6841364 56.7504975,78.1649026 56.82499,82.8692532 C56.9163035,88.7037662 61.178398,95.7738701 66.3223881,98.6292273 C71.4687811,101.485383 75.5802886,99.0621234 75.4881741,93.2268117 C75.4136816,88.5232597 72.6278209,83.0186104 68.8543333,79.5642273 L68.5235224,58.6071039 C67.5887612,58.3363442 66.6331741,57.9457792 65.6735821,57.4130455 C64.7131891,56.8803117 63.753597,56.2078052 62.8108259,55.4362597 L63.1408358,76.3933831 Z M66.2510995,94.0942013 C63.3114478,92.4632532 60.8772239,88.4234221 60.8243582,85.0896429 C60.7722935,81.7550649 63.1208109,80.3709156 66.0612637,82.0026623 C69.0017164,83.6344091 71.4351393,87.6734416 71.488806,91.0072208 C71.5256517,93.3913442 70.3345721,94.7786883 68.57799,94.779487 C67.8787214,94.779487 67.0889403,94.5590455 66.2510995,94.0942013 Z" id="Fill-15" fill="url(#linearGradient-3)" mask="url(#mask-9)"></path>
                    </g>
                </g>
                <g id="Group-18-Copy" transform="translate(167.000000, 0.000000)">
                    <g id="Group-3" transform="translate(0.000000, 0.057403)">
                        <mask id="mask-11" fill="white">
                            <use xlink:href="#path-10"></use>
                        </mask>
                        <g id="Clip-2"></g>
                        <path d="M49.4002736,0.66012987 C43.1479602,0.685961039 37.4677114,2.14613961 32.5600746,4.92944805 L19.5973632,12.8093896 C7.67995025,19.5663929 0.308756219,34.1251266 0.308756219,54.8811883 C0.308756219,96.3918766 29.7928109,146.975045 66.1632836,167.861698 C84.4412189,178.357763 100.980597,179.355851 112.911716,172.484042 L125.874428,164.604818 C137.684353,157.801893 144.981244,143.286211 144.981244,122.636344 C144.981244,81.1256558 115.497189,30.542487 79.1267164,9.65583442 C68.5633582,3.5890974 58.5828856,0.695288961 49.7357214,0.66012987 L49.4002736,0.66012987 Z" id="Fill-1" fill="url(#linearGradient-3)" mask="url(#mask-11)"></path>
                    </g>
                    <g id="Group-14" transform="translate(0.000000, 8.667792)">
                        <g id="Group-6" transform="translate(16.592040, 145.659091)">
                            <mask id="mask-13" fill="white">
                                <use xlink:href="#path-12"></use>
                            </mask>
                            <g id="Clip-5"></g>
                        </g>
                        <path d="M62.4170174,46.3516646 L60.0465199,44.9912231 L60.0465199,53.0627458 L62.4170174,54.4239049 C64.550898,55.6487328 64.6692065,53.5076159 64.6692065,51.6585347 C64.6692065,49.8094536 64.550898,47.5772101 62.4170174,46.3516646" id="Fill-7" fill="#FFFFFF"></path>
                        <path d="M77.2126443,94.0423166 C75.6010522,93.1166997 74.3927189,93.6491088 74.3927189,96.1784107 L74.3927189,126.063638 C74.3927189,128.59294 75.6010522,130.512339 77.2126443,131.437956 C78.8242363,132.363573 80.0325697,131.831881 80.0325697,129.303297 L80.0325697,99.4166347 C80.0325697,96.8880503 78.8242363,94.9679334 77.2126443,94.0423166" id="Fill-9" fill="#FFFFFF"></path>
                        <g id="Group-13">
                            <mask id="mask-15" fill="white">
                                <use xlink:href="#path-14"></use>
                            </mask>
                            <g id="Clip-12"></g>
                            <path d="M65.8239403,9.26908442 C29.5010796,-11.6204383 -0.00173134328,4.8354513 -0.000288557214,46.5427435 C0.00187562189,89.3779968 30.8378209,139.678458 65.6334925,159.192471 C100.367124,179.775607 131.49307,165.315175 131.563045,122.206542 C131.631577,80.4074058 102.083318,30.122013 65.8239403,9.26908442" id="Fill-11" fill="#FFFFFF" mask="url(#mask-15)"></path>
                        </g>
                    </g>
                    <g id="Group-17" transform="translate(29.577114, 47.414545)">
                        <mask id="mask-17" fill="white">
                            <use xlink:href="#path-16"></use>
                        </mask>
                        <g id="Clip-16"></g>
                        <path d="M2.68863184,1.13441883 C-0.529502488,3.02655195 -0.434278607,9.05741234 2.90144279,14.5773896 C4.56930348,17.337737 6.73564677,19.4558929 8.88756219,20.6469968 C10.2062687,21.3767273 11.5170398,21.7541494 12.7066169,21.724013 L24.6839055,41.5458474 C25.1174627,40.9746916 25.6310945,40.487487 26.2464428,40.1251331 C26.8567413,39.7663669 27.5348507,39.5496721 28.254801,39.4427597 L16.280398,19.6230779 C17.8422139,16.9452468 17.2629353,12.1650455 14.5735821,7.71419156 C11.9224627,3.32719805 8.01106965,0.561827922 4.90114428,0.561827922 C4.09823383,0.561827922 3.34942786,0.746233766 2.68863184,1.13441883 Z M5.40251244,13.1064481 C3.49659204,9.95289286 3.44176617,6.50658442 5.28131841,5.42526299 C6.20037313,4.88424351 7.42169154,5.03636039 8.65166667,5.71658117 C9.8809204,6.39751948 11.1195522,7.60799675 12.0725124,9.18513312 C13.9784328,12.3394058 14.0325373,15.7849968 12.1929851,16.8670357 C11.8156965,17.0887532 11.3879104,17.1942305 10.9291045,17.1942305 C9.15231343,17.1942305 6.9181592,15.6156591 5.40251244,13.1064481 Z M6.65557214,40.8340552 C3.29748756,40.1954513 0.9010199,42.4255422 0.96738806,46.6510909 C1.05106965,51.8926656 4.8888806,58.2449805 9.52166667,60.8094416 C14.1558955,63.3753377 17.8595274,61.1976266 17.7758458,55.9567695 C17.7094776,51.7305032 15.1997512,46.7852695 11.80199,43.6819416 L11.5040547,24.8553247 C10.6614677,24.6113636 9.80156716,24.2612078 8.93661692,23.7811786 C8.07166667,23.3025844 7.20743781,22.6998571 6.35835821,22.0060032 L6.65557214,40.8340552 Z M9.45746269,56.7352922 C6.80995025,55.2693734 4.61763682,51.6408117 4.57002488,48.6451136 C4.52313433,45.6508506 6.63825871,44.4059318 9.28577114,45.8718506 C11.934005,47.3377695 14.1270398,50.9670487 14.1739303,53.9620292 C14.2078358,56.1045812 13.1351244,57.3509351 11.5531095,57.3509351 C10.9226119,57.3509351 10.2120398,57.1528961 9.45746269,56.7352922 Z M52.8990299,28.9309091 C50.3041791,30.4571006 49.8670149,34.674039 51.5413682,39.1435487 L37.9943284,47.1088766 C36.8112438,45.7764188 35.4990299,44.6857695 34.1413682,43.934513 C31.896393,42.6910292 29.8007463,42.5116461 28.2425373,43.4293701 C25.024403,45.3207857 25.1189055,51.3509286 28.4546269,56.8716234 C30.0705473,59.5458669 32.1964925,61.703487 34.4414677,62.9462532 C36.6864428,64.1890195 38.7799254,64.3684026 40.3395771,63.4506786 C41.8985075,62.5343896 42.734602,60.6314935 42.6949254,58.0921461 C42.670398,56.5566266 42.3226866,54.8998442 41.6979602,53.2387565 L55.245,45.2734286 C56.4562189,46.6331526 57.7785323,47.7137565 59.0972388,48.4427695 C61.2491542,49.6345909 63.3866418,49.9000779 64.9960697,48.9536526 C68.214204,47.0615195 68.1189801,41.0306591 64.7832587,35.5099643 C62.1328607,31.1236883 58.2207463,28.3583182 55.1115423,28.3576006 C54.3086318,28.3576006 53.5591045,28.5420065 52.8990299,28.9309091 Z M55.6129104,40.9036558 C53.7062687,37.7486656 53.6521642,34.3037922 55.4917164,33.2210357 C56.4107711,32.6814513 57.6320896,32.8328506 58.8613433,33.5130714 C60.090597,34.1932922 61.3292289,35.4030519 62.2821891,36.9809058 C64.1873881,40.1351786 64.2429353,43.581487 62.4041045,44.663526 C62.0268159,44.8852435 61.5983085,44.9900032 61.1402239,44.9900032 C59.3627114,44.9907208 57.1271144,43.4107143 55.6129104,40.9036558 Z M34.3772637,58.8721039 C33.0946269,58.1617468 31.879801,56.9297435 30.9556965,55.4006818 C29.0504975,52.2456916 28.9956716,48.8008182 30.8345025,47.7194968 C31.7261443,47.1956981 32.9229353,47.2983052 34.2048507,48.0086623 C35.4874876,48.7183019 36.7023134,49.9517403 37.6249751,51.4793669 C38.5490796,53.0069935 39.0706468,54.6479903 39.09301,56.0988409 C39.1160945,57.548974 38.6378109,58.6367532 37.7476119,59.1612695 C37.3724876,59.3815519 36.9432587,59.4913344 36.475796,59.4913344 C35.8337562,59.4913344 35.1195771,59.2839675 34.3772637,58.8721039 Z M56.8659701,68.6298279 C53.5071642,67.9926591 51.1106965,70.2213149 51.1777861,74.4475812 C51.2600249,79.6891558 55.0985572,86.0407532 59.7313433,88.6059318 C64.3662935,91.1718279 68.069204,88.9948344 67.9862438,83.7525422 C67.9191542,79.5269935 65.4101493,74.5817597 62.0116667,71.4784318 L61.7137313,52.6510974 C60.8718657,52.4078539 60.0112438,52.0569805 59.1470149,51.5783864 C58.2820647,51.0997922 57.4178358,50.4956299 56.5687562,49.8024935 L56.8659701,68.6298279 Z M59.6671393,84.5317825 C57.0196269,83.0665812 54.8273134,79.4373019 54.7797015,76.4423214 C54.7328109,73.4466234 56.8479353,72.2031396 59.4961692,73.6690584 C62.144403,75.1349773 64.335995,78.763539 64.3843284,81.7585195 C64.4175124,83.9003539 63.344801,85.1467078 61.7627861,85.1474253 C61.13301,85.1474253 60.4217164,84.9493864 59.6671393,84.5317825 Z" id="Fill-15" fill="url(#linearGradient-3)" mask="url(#mask-17)"></path>
                    </g>
                </g>
                <g id="Group-18-Copy-2" transform="translate(177.000000, 264.000000)">
                    <g id="Group-3" transform="translate(0.000000, 0.045974)">
                        <mask id="mask-19" fill="white">
                            <use xlink:href="#path-18"></use>
                        </mask>
                        <g id="Clip-2"></g>
                        <path d="M39.5202189,0.528701299 C34.5183682,0.54938961 29.9741692,1.7188539 26.0480597,3.94801948 L15.6778905,10.2591039 C6.1439602,15.6708214 0.247004975,27.3309838 0.247004975,43.9546169 C0.247004975,77.2007338 23.8342488,117.713045 52.9306269,134.441269 C67.5529751,142.84762 80.7844776,143.646994 90.3293731,138.143328 L100.699542,131.832818 C110.147483,126.384321 115.984995,114.75864 115.984995,98.2200584 C115.984995,64.9739416 92.3977512,24.4616299 63.3013731,7.73340584 C54.8506866,2.87452597 46.8663085,0.55686039 39.7885771,0.528701299 L39.5202189,0.528701299 Z" id="Fill-1" fill="url(#linearGradient-3)" mask="url(#mask-19)"></path>
                    </g>
                    <g id="Group-14" transform="translate(0.000000, 6.942078)">
                        <g id="Group-6" transform="translate(13.273632, 116.659091)">
                            <mask id="mask-21" fill="white">
                                <use xlink:href="#path-20"></use>
                            </mask>
                            <g id="Clip-5"></g>
                        </g>
                        <path d="M49.9336139,37.1232789 L48.0372159,36.0336945 L48.0372159,42.4982172 L49.9336139,43.5883763 C51.6407184,44.5693471 51.7353652,42.8545159 51.7353652,41.3735776 C51.7353652,39.8926393 51.6407184,38.1048244 49.9336139,37.1232789" id="Fill-7" fill="#FFFFFF"></path>
                        <path d="M61.7701154,75.3189594 C60.4808418,74.5776282 59.5141751,75.0040373 59.5141751,77.0297679 L59.5141751,100.964995 C59.5141751,102.990726 60.4808418,104.527982 61.7701154,105.269313 C63.0593891,106.010644 64.0260557,105.58481 64.0260557,103.559654 L64.0260557,79.6232776 C64.0260557,77.5981218 63.0593891,76.0602906 61.7701154,75.3189594" id="Fill-9" fill="#FFFFFF"></path>
                        <g id="Group-13">
                            <mask id="mask-23" fill="white">
                                <use xlink:href="#path-22"></use>
                            </mask>
                            <g id="Clip-12"></g>
                            <path d="M52.6591522,7.42365584 C23.6008637,-9.30686688 -0.00138507463,3.87273701 -0.000230845771,37.2763149 C0.00150049751,71.5832825 24.6702567,111.869172 52.506794,127.498042 C80.2936995,143.983179 105.194456,132.401747 105.250436,97.8758279 C105.305262,64.3986916 81.6666547,24.1248701 52.6591522,7.42365584" id="Fill-11" fill="#FFFFFF" mask="url(#mask-23)"></path>
                        </g>
                    </g>
                    <g id="Group-17" transform="translate(23.661692, 37.974545)">
                        <mask id="mask-25" fill="white">
                            <use xlink:href="#path-24"></use>
                        </mask>
                        <g id="Clip-16"></g>
                        <path d="M2.15090547,0.908561688 C-0.42360199,2.42398052 -0.347422886,7.25412662 2.32115423,11.6751039 C3.65544279,13.8858799 5.38851741,15.5823214 7.11004975,16.5362825 C8.16501493,17.1207273 9.21363184,17.4230065 10.1652935,17.3988701 L19.7471244,33.274276 C20.0939701,32.8168344 20.5048756,32.4266299 20.9971542,32.1364188 C21.485393,31.8490812 22.0278806,31.6755292 22.6038408,31.5899026 L13.0243184,15.7162208 C14.2737711,13.5715325 13.8103483,9.74304545 11.6588657,6.17833442 C9.53797015,2.66476948 6.40885572,0.449970779 3.92091542,0.449970779 C3.27858706,0.449970779 2.67954229,0.597662338 2.15090547,0.908561688 Z M4.32200995,10.4970195 C2.79727363,7.97132143 2.75341294,5.21115584 4.22505473,4.34512013 C4.96029851,3.91181494 5.93735323,4.0336461 6.92133333,4.57843831 C7.90473632,5.12380519 8.89564179,6.09328247 9.65800995,7.35641883 C11.1827463,9.88269156 11.2260299,12.6422825 9.75438806,13.5088929 C9.45255721,13.6864675 9.11032836,13.7709448 8.74328358,13.7709448 C7.32185075,13.7709448 5.53452736,12.5066591 4.32200995,10.4970195 Z M5.32445771,32.7041981 C2.63799005,32.192737 0.72081592,33.9788279 0.773910448,37.3630909 C0.840855721,41.5610942 3.91110448,46.6486948 7.61733333,48.7025844 C11.3247164,50.7576234 14.2876219,49.0134838 14.2206766,44.8160552 C14.1675821,41.4312175 12.159801,37.4705552 9.44159204,34.9850844 L9.20324378,19.9067532 C8.52917413,19.7113636 7.84125373,19.4309221 7.14929353,19.0464643 C6.45733333,18.6631558 5.76595025,18.1804286 5.08668657,17.6247175 L5.32445771,32.7041981 Z M7.56597015,45.4395779 C5.4479602,44.2655162 3.69410945,41.3593831 3.6560199,38.9601136 C3.61850746,36.5619935 5.31060697,35.5649318 7.42861692,36.7389935 C9.54720398,37.9130552 11.3016318,40.819763 11.3391443,43.2184578 C11.3662687,44.9344383 10.5080995,45.9326494 9.24248756,45.9326494 C8.73808955,45.9326494 8.16963184,45.774039 7.56597015,45.4395779 Z M42.3192239,23.1709091 C40.2433433,24.3932435 39.8936119,27.7706104 41.2330945,31.350263 L30.3954627,37.7297338 C29.448995,36.6625617 28.3992239,35.7890552 27.3130945,35.1873701 C25.5171144,34.1914578 23.840597,34.047789 22.5940299,34.7827987 C20.0195224,36.2976429 20.0951244,41.1272143 22.7637015,45.5487662 C24.0564378,47.6905812 25.757194,49.4186299 27.5531741,50.4139675 C29.3491542,51.4093052 31.0239403,51.552974 32.2716617,50.8179643 C33.518806,50.0841039 34.1876816,48.5600649 34.1559403,46.526289 C34.1363184,45.2964838 33.8581493,43.9695584 33.3583682,42.6391851 L44.196,36.2597143 C45.1649751,37.348724 46.2228259,38.2141851 47.277791,38.7980552 C48.9993234,39.7525909 50.7093134,39.9652208 51.9968557,39.207224 C54.5713632,37.6918052 54.4951841,32.8616591 51.826607,28.4401071 C49.7062886,24.9271169 46.576597,22.7123182 44.0892338,22.7117435 C43.4469055,22.7117435 42.8472836,22.8594351 42.3192239,23.1709091 Z M44.4903284,32.7599416 C42.9650149,30.2330942 42.9217313,27.4740779 44.3933731,26.6068929 C45.1286169,26.174737 46.1056716,26.2959935 47.0890746,26.8407857 C48.0724776,27.3855779 49.0633831,28.3544805 49.8257512,29.6181916 C51.3499104,32.1444643 51.3943483,34.9046299 49.9232836,35.7712403 C49.6214527,35.9488149 49.2786468,36.0327175 48.9121791,36.0327175 C47.4901692,36.0332922 45.7016915,34.7678571 44.4903284,32.7599416 Z M27.5018109,47.150961 C26.4757015,46.5820325 25.5038408,45.5953149 24.7645572,44.3706818 C23.240398,41.8438344 23.1965373,39.0848182 24.667602,38.2187825 C25.3809154,37.7992695 26.3383483,37.8814481 27.3638806,38.4503766 C28.38999,39.0187305 29.3618507,40.0065974 30.0999801,41.2300812 C30.8392637,42.4535649 31.2565174,43.7678474 31.274408,44.9298409 C31.2928756,46.0912597 30.9102488,46.9624675 30.1980896,47.3825552 C29.89799,47.5589805 29.554607,47.6469058 29.1806368,47.6469058 C28.667005,47.6469058 28.0956617,47.4808247 27.5018109,47.150961 Z M45.4927761,54.9659708 C42.8057313,54.4556591 40.8885572,56.2406006 40.9422289,59.6254383 C41.0080199,63.8234416 44.0788458,68.9104675 47.7850746,70.9649318 C51.4930348,73.0199708 54.4553632,71.2764058 54.388995,67.0778279 C54.3353234,63.6935649 52.3281194,59.7329026 49.6093333,57.2474318 L49.3709851,42.168526 C48.6974925,41.973711 48.008995,41.6926948 47.3176119,41.3093864 C46.6256517,40.9260779 45.9342687,40.4422013 45.255005,39.8870649 L45.4927761,54.9659708 Z M47.7337114,67.7019253 C45.6157015,66.5284383 43.8618507,63.6217305 43.8237612,61.2230357 C43.7862488,58.8237662 45.4783483,57.8278539 47.5969353,59.0019156 C49.7155224,60.1759773 51.468796,63.0821104 51.5074627,65.4808052 C51.53401,67.196211 50.6758408,68.1944221 49.4102289,68.1949968 C48.906408,68.1949968 48.3373731,68.0363864 47.7337114,67.7019253 Z" id="Fill-15" fill="url(#linearGradient-3)" mask="url(#mask-25)"></path>
                    </g>
                </g>
            </g>
        </g>
    </g>
</svg>